HIERARCHY
ROOT pelvis
{
  OFFSET 0 100 0
  CHANNELS 6 Xposition Yposition Zposition Zrotation Xrotation Yrotation
  JOINT pelvis_right_femur
  {
    OFFSET -10.78128 -3.44521 -0.5502486
    CHANNELS 3 Zrotation Xrotation Yrotation
    JOINT right_femur_tibia
    {
      OFFSET -0.8047443 -44.0398 -0.1307829
      CHANNELS 3 Zrotation Xrotation Yrotation
      JOINT right_tibia_foot
      {
        OFFSET 3.006224 -47.83518 -5
        CHANNELS 3 Zrotation Xrotation Yrotation
        End Site
        {
          OFFSET 0 -5 15
        }
      }
    }
  }
  JOINT pelvis_left_femur
  {
    OFFSET 10.78128 -3.44521 -0.5502486
    CHANNELS 3 Zrotation Xrotation Yrotation
    JOINT left_femur_tibia
    {
      OFFSET 0.8047443 -44.0398 -0.1307829
      CHANNELS 3 Zrotation Xrotation Yrotation
      JOINT left_tibia_foot
      {
        OFFSET -4.370144 -48.10324 -4.275266
        CHANNELS 3 Zrotation Xrotation Yrotation
        End Site
        {
          OFFSET 0 -5 15
        }
      }
    }
  }
  JOINT pelvis_spine1
  {
    OFFSET 0 6.468898 -3.129235
    CHANNELS 3 Zrotation Xrotation Yrotation
    JOINT spine1
    {
      OFFSET 0 23.15396 4.99043
      CHANNELS 3 Zrotation Xrotation Yrotation
      JOINT spine2
      {
        OFFSET 0 20.79997 -5.064912
        CHANNELS 3 Zrotation Xrotation Yrotation
        JOINT neck
        {
          OFFSET 0 14.38658 9.616178
          CHANNELS 3 Zrotation Xrotation Yrotation
          End Site
          {
            OFFSET 0 20 0
          }
        }
      }
      JOINT right_manubrium
      {
        OFFSET -5.722621 16.35077 3.967754
        CHANNELS 3 Zrotation Xrotation Yrotation
        JOINT right_clavicle
        {
          OFFSET -13.16364 1.694482 -4.693211
          CHANNELS 3 Zrotation Xrotation Yrotation
          JOINT right_humerus
          {
            OFFSET -28.5034 -0.3100689 -2.792744
            CHANNELS 3 Zrotation Xrotation Yrotation
            JOINT right_radius
            {
              OFFSET -25.15693 0.02248979 -1.271978
              CHANNELS 3 Zrotation Xrotation Yrotation
              End Site
              {
                OFFSET -15 0 0
              }
            }
          }
        }
      }
      JOINT left_manubrium
      {
        OFFSET 5.722621 16.35077 3.967754
        CHANNELS 3 Zrotation Xrotation Yrotation
        JOINT left_clavicle
        {
          OFFSET 13.16364 1.694482 -4.693211
          CHANNELS 3 Zrotation Xrotation Yrotation
          JOINT left_humerus
          {
            OFFSET 29.39168 -1.063119 -2.237045
            CHANNELS 3 Zrotation Xrotation Yrotation
            JOINT left_radius
            {
              OFFSET 24.59957 -0.9528479 0.9047498
              CHANNELS 3 Zrotation Xrotation Yrotation
              End Site
              {
                OFFSET 15 -0 -0
              }
            }
          }
        }
      }
    }
  }
}
MOTION
Frames: 21
Frame Time: 0.0416666666667
1894.982 102.4419 1885.479 2.993643 -1.723662 89.05842 6.834125 -18.28558 5.591985 -0 18.95764 -0 -4.964092 -7.086464 -6.140955 -2.93162 13.00229 -10.21623 -0 43.24296 -0 -8.81225 -10.11228 12.45042 0.2582918 -0.1385555 2.252958 2.149562 8.282393 -7.596862 1.834411 22.03088 6.104658 2.261774 -20.91942 8.442558 3.288532 -13.50766 9.771074 90.32471 29.76472 -21.86837 -0 0 6.877447 -12.92727 11.93864 6.298978 5.49879 -19.99535 -2.060074 -86.42497 26.23782 10.16342 0 0 -20.10144 4.218818 9.873077 9.161894
1901.466 103.5314 1885.99 4.330832 -1.261069 88.65559 6.49748 -12.68752 5.445011 -0 19.24454 -0 -4.869356 -7.918361 -5.675663 -3.020948 8.166416 -9.412278 -0 51.92543 -0 -8.72318 -7.465446 13.16029 0.1333218 0.08745537 3.223355 1.877132 8.965751 -6.976582 1.781212 22.47758 5.979061 2.432107 -20.12507 7.998892 3.64056 -13.87537 10.22029 89.63822 29.96544 -20.85753 -0 0 7.29202 -14.08428 12.39333 6.82654 4.966855 -19.66098 -2.257276 -87.28743 25.40088 11.65348 0 0 -18.85172 3.989665 9.592709 9.101347
1907.62 104.7113 1886.437 5.639149 -0.6951651 88.04902 5.903245 -7.11489 5.119634 -0 18.2031 -0 -4.799773 -8.827914 -5.040247 -3.011536 1.927338 -8.653024 -0 57.52321 -0 -8.554266 -6.195955 14.25901 -0.1564373 0.567376 4.447093 1.409587 9.560465 -6.134171 1.839015 22.93582 5.848355 2.681895 -19.41235 7.624486 3.66091 -14.6305 10.62264 88.60573 29.85121 -19.25721 -0 0 8.544354 -15.47383 12.55585 7.461149 4.758857 -19.4184 -2.444027 -88.51739 25.01079 13.63 0 0 -17.64603 3.470519 9.532089 9.53821
1913.413 105.6217 1886.831 6.696423 -0.2302402 87.31826 5.265867 -1.94472 4.609985 -0 15.94874 -0 -4.765543 -10.01267 -4.31314 -2.637574 -4.86419 -7.758635 -0 58.29728 -0 -8.211833 -6.097237 15.56678 -0.4740574 1.16742 5.576922 0.8532588 9.918766 -5.22827 1.93637 23.32949 5.702566 2.851349 -18.89147 7.350558 3.229555 -15.70305 10.90983 87.34667 29.34852 -17.07521 -0 0 10.42705 -17.06508 12.38251 8.298821 4.824167 -19.19381 -2.585523 -89.75716 24.79556 15.61459 0 0 -16.47881 2.952602 9.551467 10.04254
1918.952 105.9992 1887.172 7.308565 0.002103519 86.54142 4.768858 2.758913 3.991372 -0 13.18524 -0 -4.692186 -11.59899 -3.54194 -1.767882 -11.37876 -6.623765 -0 54.08488 -0 -7.670268 -6.576626 16.85867 -0.7024601 1.690007 6.385921 0.3398971 9.994298 -4.427625 1.975631 23.57223 5.566559 2.851575 -18.6019 7.164922 2.469162 -16.98941 11.06664 85.9584 28.63899 -14.4812 -0 0 12.70076 -18.7595 12.00197 9.389397 5.00594 -18.8817 -2.638064 -90.79572 24.545 17.43823 0 0 -15.2846 2.555009 9.512889 10.39517
1924.413 105.7534 1887.444 7.338069 0.004319973 85.77778 4.468004 7.036539 3.392202 -0 10.73128 -0 -4.469295 -13.43913 -2.707392 -0.5090863 -17.08177 -5.329833 -0 46.19994 -0 -6.998235 -7.073038 17.93768 -0.8098144 1.963971 6.869785 -0.04249886 9.844883 -3.833736 1.896323 23.58411 5.494247 2.721747 -18.53828 7.036204 1.674835 -18.37498 11.12614 84.45828 28.07649 -11.74493 -0 0 15.17903 -20.41628 11.63535 10.68922 5.16327 -18.42789 -2.559236 -91.65513 24.18698 19.26572 0 0 -14.02679 2.229022 9.351047 10.65146
1929.972 104.9499 1887.625 6.819729 -0.1139243 85.06524 4.275745 10.92503 2.932494 -0 9.257516 -0 -4.013139 -15.16946 -1.803599 0.8099626 -21.67272 -4.144141 -0 36.68843 -0 -6.32818 -7.305938 18.71606 -0.8481832 1.909669 7.157638 -0.2823127 9.559125 -3.444468 1.719181 23.35973 5.514912 2.561913 -18.64064 6.948187 1.098661 -19.71654 11.11727 82.86389 27.86884 -9.131844 -0 0 17.6766 -21.89663 11.4253 12.06162 5.230048 -17.8207 -2.336525 -92.46374 23.77081 21.27195 0 0 -12.68247 1.859353 9.07946 10.98489
1935.77 103.7569 1887.693 6.012326 -0.2053742 84.42698 4.012821 14.43289 2.683937 -0 9.274907 -0 -3.317494 -16.34756 -0.9145018 1.737063 -24.9401 -3.432942 -0 27.63362 -0 -5.799118 -7.289444 19.24301 -0.911449 1.553912 7.38309 -0.4338215 9.201481 -3.172213 1.541067 23.00344 5.602068 2.45282 -18.79487 6.915798 0.8061579 -20.83443 11.02555 81.31974 27.89705 -6.868588 -0 0 19.94606 -23.0914 11.34236 13.30601 5.20736 -17.05958 -2.007378 -93.30584 23.41406 23.38626 0 0 -11.20627 1.362409 8.762233 11.5163
1941.91 102.3997 1887.636 5.302838 -0.1528588 83.88198 3.494015 17.48685 2.659211 -0 11.18049 -0 -2.484939 -16.51784 -0.2030813 1.865994 -26.71485 -3.50484 -0 20.69534 -0 -5.491266 -7.211964 19.64364 -1.086865 1.003181 7.613823 -0.5821705 8.823516 -2.905417 1.480071 22.68203 5.697741 2.430982 -18.87967 6.971247 0.6976487 -21.55479 10.81066 80.11616 27.834 -5.157942 -0 0 21.69674 -23.95171 11.24079 14.22385 5.130236 -16.17282 -1.660416 -94.15533 23.21972 25.3067 0 0 -9.559783 0.7520742 8.478076 12.22781
1948.449 101.1349 1887.457 5.017487 0.08224756 83.45801 2.625752 19.84238 2.818365 -0 15.2457 -0 -1.708303 -15.25768 0.1712873 1.044564 -26.90269 -4.422725 -0 16.79181 -0 -5.383286 -7.281904 20.00017 -1.413196 0.3976459 7.837834 -0.7988073 8.507455 -2.586491 1.60146 22.52473 5.764687 2.503328 -18.83497 7.133235 0.6429149 -21.78387 10.47002 79.55927 27.42827 -4.168261 -0 0 22.6885 -24.52181 11.00591 14.70903 5.032985 -15.26593 -1.41617 -94.88352 23.19999 26.69349 0 0 -7.79778 0.1523849 8.287466 12.97558
1955.371 100.2241 1887.173 5.264398 0.4442431 83.20364 1.481644 21.05633 3.071649 -0 21.51876 -0 -1.194798 -12.29752 0.1468062 -0.5106992 -25.5316 -5.914229 -0 15.9278 -0 -5.362881 -7.614013 20.2638 -1.856919 -0.1306096 7.976924 -1.103802 8.380796 -2.262329 1.868352 22.54804 5.823035 2.664658 -18.69964 7.383578 0.6083552 -21.55707 10.08955 79.79502 26.71839 -3.984843 -0 0 22.82297 -24.93532 10.67235 14.80604 4.925863 -14.5376 -1.391343 -95.30914 23.26175 27.34865 0 0 -6.137933 -0.255883 8.211432 13.57298
1962.556 99.88353 1886.809 5.912645 0.8093804 83.18757 0.306906 20.61526 3.284391 -0 29.65914 -0 -1.076512 -7.73048 -0.206778 -2.312941 -22.77215 -7.492478 -0 17.25256 -0 -5.294656 -8.204361 20.27645 -2.319138 -0.4825933 7.911515 -1.451224 8.568629 -2.071318 2.149939 22.66617 5.941707 2.895493 -18.58316 7.668488 0.6700137 -21.02278 9.822236 80.74173 26.01058 -4.586501 -0 0 22.1662 -25.34227 10.41543 14.68154 4.790473 -14.22126 -1.659426 -95.26783 23.28088 27.25546 0 0 -4.941656 -0.3388663 8.230691 13.8937
1969.784 100.2098 1886.396 6.712866 1.043825 83.47661 -0.5841179 18.19633 3.331727 -0 38.78461 -0 -1.358268 -2.22602 -0.7562261 -3.857444 -18.90096 -8.722477 -0 19.37998 -0 -5.109064 -8.993978 19.89737 -2.674534 -0.6041988 7.520933 -1.742004 9.100106 -2.169494 2.291931 22.77599 6.180801 3.141632 -18.58285 7.924663 0.9091885 -20.36741 9.794597 82.17575 25.63306 -5.869939 -0 0 20.90854 -25.78356 10.41532 14.51182 4.595455 -14.46408 -2.218881 -94.68499 23.23288 26.49676 0 0 -4.582251 -0.1167438 8.309077 13.95059
1976.78 101.1214 1885.966 7.456914 1.069364 84.09974 -0.9765834 13.90703 3.194172 -0 47.4656 -0 -1.912606 2.960073 -1.428575 -4.849138 -14.23078 -9.444768 -0 20.91038 -0 -4.856063 -9.967565 19.14162 -2.82991 -0.4931714 6.746987 -1.862267 9.831337 -2.635453 2.214823 22.84412 6.522201 3.306222 -18.70539 8.114226 1.294373 -19.72585 10.00681 83.85922 25.66257 -7.668125 -0 0 19.30597 -26.09013 10.69764 14.35017 4.332861 -15.21581 -2.974826 -93.63005 23.28473 25.15936 0 0 -5.254331 0.1995248 8.433288 13.91087
1983.303 102.3685 1885.546 8.048774 0.9080914 85.02139 -0.8613952 8.312142 2.978555 -0 54.00925 -0 -2.524137 6.407861 -2.26598 -5.281007 -9.081494 -9.814578 -0 20.98224 -0 -4.683776 -11.20584 18.2115 -2.775072 -0.1985205 5.658808 -1.741299 10.46832 -3.409026 1.972593 22.92253 6.856113 3.29147 -18.86196 8.245376 1.665061 -19.13322 10.30845 85.58916 25.86397 -9.748798 -0 0 17.62185 -25.91736 11.08793 14.07241 4.061926 -16.22972 -3.749385 -92.31225 23.73998 23.31075 0 0 -6.85247 0.3077845 8.637686 14.01403
1989.234 103.6218 1885.165 8.44966 0.6690553 86.14592 -0.3995533 2.180605 2.818478 -0 57.04465 -0 -3.007381 7.281064 -3.326885 -5.345635 -3.804497 -10.1402 -0 19.56333 -0 -4.745935 -12.83296 17.37372 -2.586376 0.1970395 4.457378 -1.397275 10.71962 -4.311923 1.718264 23.07752 7.05223 3.074128 -18.95449 8.362815 1.84076 -18.54856 10.48763 87.18277 25.90951 -11.85241 -0 0 16.06686 -24.95611 11.32893 13.47356 3.913626 -17.21057 -4.341421 -90.99575 24.82843 21.0564 0 0 -9.032821 0.01755583 8.97835 14.41873
1994.595 104.5897 1884.852 8.593464 0.4683403 87.35377 0.2031272 -3.862705 2.776771 -0 56.10344 -0 -3.325373 5.801595 -4.540975 -5.261682 1.228519 -10.65086 -0 17.27252 -0 -5.101785 -14.88694 16.78375 -2.368842 0.6048826 3.384827 -0.9233655 10.47194 -5.148607 1.599662 23.30294 7.051324 2.736027 -18.97505 8.513362 1.753402 -17.92405 10.41163 88.49312 25.65971 -13.78655 -0 0 14.75488 -23.16899 11.25458 12.45016 4.02184 -17.99108 -4.617011 -89.88551 26.51075 18.60259 0 0 -11.41534 -0.6112376 9.476336 15.09555
1999.526 105.0992 1884.628 8.379855 0.3472575 88.54237 0.813292 -9.495252 2.85183 -0 51.74489 -0 -3.560985 2.98521 -5.715047 -5.152543 5.709811 -11.38243 -0 14.90586 -0 -5.69272 -17.22734 16.41843 -2.185255 0.9491739 2.60498 -0.4217908 9.829109 -5.808355 1.674373 23.50704 6.890882 2.409384 -19.01883 8.714824 1.480274 -17.25669 10.09457 89.45243 25.23783 -15.4898 -0 0 13.70385 -20.81758 10.87355 11.0847 4.43467 -18.57605 -4.558179 -89.07309 28.48844 16.23786 0 0 -13.74524 -1.324012 10.0933 15.85986
2004.219 105.1124 1884.498 7.730665 0.2595942 89.64649 1.414284 -14.61387 3.037577 -0 45.16709 -0 -3.793601 -0.04502405 -6.655533 -5.037621 9.464191 -12.22234 -0 13.07467 -0 -6.401835 -19.5573 16.14073 -2.032484 1.173937 2.1543 0.04821797 9.005495 -6.289063 1.901432 23.57216 6.662454 2.197073 -19.21184 8.952067 1.175594 -16.58734 9.651505 90.07152 24.90154 -16.99941 -0 0 12.87373 -18.28119 10.33151 9.572606 5.090396 -19.0544 -4.232298 -88.55665 30.37682 14.23838 0 0 -15.90942 -1.83762 10.74991 16.48706
2008.866 104.7001 1884.452 6.643115 0.1182274 90.63644 2.072638 -19.17488 3.34736 -0 37.70237 -0 -4.042153 -2.535729 -7.248295 -4.883158 12.44312 -13 -0 12.13508 -0 -7.12136 -21.51199 15.79391 -1.865578 1.248216 1.970128 0.4743508 8.204293 -6.653056 2.185734 23.41961 6.457462 2.134997 -19.63096 9.192338 0.9860883 -15.96566 9.215412 90.40556 24.88843 -18.37265 -0 0 12.19697 -15.88686 9.823193 8.115813 5.857333 -19.50195 -3.734445 -88.27014 31.84749 12.76515 0 0 -17.86562 -1.950386 11.3487 16.78605
2013.641 104.0003 1884.472 5.223284 -0.148826 91.50531 2.866998 -23.06893 3.787464 -0 30.51566 -0 -4.289377 -4.188944 -7.472717 -4.648986 14.68358 -13.54265 -0 12.29219 -0 -7.77659 -22.73218 15.26509 -1.633606 1.169742 1.938522 0.8682806 7.562734 -6.971984 2.426396 23.04518 6.333561 2.196289 -20.26052 9.397732 0.9990358 -15.41669 8.886042 90.53529 25.32052 -19.63168 -0 0 11.5791 -13.86554 9.516977 6.87626 6.581473 -19.94063 -3.159869 -88.08812 32.66761 11.79928 0 0 -19.57087 -1.561574 11.78772 16.60686
